# xmcd CD database file
#
# Track frame offsets:
#	150
#	15242
#	30711
#	47103
#	62074
#	76353
#	88972
#	105812
#	118625
#	139766
#	155615
#	172669
#
# Disc length: 2550 seconds
#
# Revision: 0
# Processed by: cddbd v1.5.1PL0 Copyright (c) Steve Scherf et al.
# Submitted via: CDex 1.51
#
DISCID=8a09f40c
DTITLE=Chili - Die Zweite
DYEAR=2002
DGENRE=Country
TTITLE0=Zeit
TTITLE1=Hallo süßer Engel
TTITLE2=Können diese Augen lügen?
TTITLE3=Bleib heut' Nacht
TTITLE4=Du und ich
TTITLE5=Seit Du bei mir bist
TTITLE6=Winterliebe
TTITLE7=Susi
TTITLE8=Das wär's gewesen
TTITLE9=Versuch's mal mit mir
TTITLE10=Niemals geglaubt
TTITLE11=Wenn Du mich noch liebst
EXTD=YEAR: 2002
EXTT0=
EXTT1=
EXTT2=
EXTT3=
EXTT4=
EXTT5=
EXTT6=
EXTT7=
EXTT8=
EXTT9=
EXTT10=
EXTT11=
PLAYORDER=
